<svg width="256" height="256" viewBox="0 0 256 256" fill="none" xmlns="http://www.w3.org/2000/svg">
  <defs>
    <linearGradient id="panel" x1="34" y1="22" x2="222" y2="232" gradientUnits="userSpaceOnUse">
      <stop stop-color="#09121D"/>
      <stop offset="1" stop-color="#13253D"/>
    </linearGradient>
    <linearGradient id="ringStroke" x1="52" y1="42" x2="208" y2="212" gradientUnits="userSpaceOnUse">
      <stop stop-color="#D5E4FF"/>
      <stop offset="0.44" stop-color="#67B3FF"/>
      <stop offset="1" stop-color="#54E0D3"/>
    </linearGradient>
    <linearGradient id="nodeFill" x1="70" y1="58" x2="194" y2="196" gradientUnits="userSpaceOnUse">
      <stop stop-color="#0E1B2C"/>
      <stop offset="1" stop-color="#132238"/>
    </linearGradient>
    <linearGradient id="claw" x1="94" y1="72" x2="174" y2="160" gradientUnits="userSpaceOnUse">
      <stop stop-color="#FFD09B"/>
      <stop offset="0.58" stop-color="#FFA36E"/>
      <stop offset="1" stop-color="#FF7A70"/>
    </linearGradient>
    <radialGradient id="coreGlow" cx="0" cy="0" r="1" gradientUnits="userSpaceOnUse" gradientTransform="translate(128 132) rotate(90) scale(78)">
      <stop stop-color="#79AEFF" stop-opacity="0.26"/>
      <stop offset="1" stop-color="#79AEFF" stop-opacity="0"/>
    </radialGradient>
    <filter id="drop" x="0" y="0" width="256" height="256" filterUnits="userSpaceOnUse" color-interpolation-filters="sRGB">
      <feDropShadow dx="0" dy="22" stdDeviation="22" flood-color="#06111D" flood-opacity="0.34"/>
    </filter>
  </defs>

  <g filter="url(#drop)">
    <rect x="28" y="24" width="200" height="200" rx="56" fill="url(#panel)"/>
    <rect x="28.5" y="24.5" width="199" height="199" rx="55.5" stroke="#FFFFFF" stroke-opacity="0.08"/>
    <circle cx="128" cy="128" r="82" fill="url(#coreGlow)"/>

    <g stroke="url(#ringStroke)" stroke-width="7" stroke-linecap="round" stroke-linejoin="round" opacity="0.9">
      <path d="M128 52L176 66L204 112L194 166L152 204L104 204L62 166L52 112L80 66L128 52Z"/>
      <path d="M80 66L104 96"/>
      <path d="M176 66L152 96"/>
      <path d="M52 112L92 118"/>
      <path d="M204 112L164 118"/>
      <path d="M62 166L104 156"/>
      <path d="M194 166L152 156"/>
    </g>

    <g>
      <rect x="115" y="39" width="26" height="26" rx="9" fill="url(#nodeFill)" stroke="url(#ringStroke)" stroke-width="4"/>
      <rect x="166" y="57" width="26" height="26" rx="9" transform="rotate(18 166 57)" fill="url(#nodeFill)" stroke="url(#ringStroke)" stroke-width="4"/>
      <rect x="190" y="107" width="26" height="26" rx="9" transform="rotate(18 190 107)" fill="url(#nodeFill)" stroke="url(#ringStroke)" stroke-width="4"/>
      <rect x="176" y="164" width="26" height="26" rx="9" transform="rotate(18 176 164)" fill="url(#nodeFill)" stroke="url(#ringStroke)" stroke-width="4"/>
      <rect x="115" y="190" width="26" height="26" rx="9" fill="url(#nodeFill)" stroke="url(#ringStroke)" stroke-width="4"/>
      <rect x="54" y="164" width="26" height="26" rx="9" transform="rotate(-18 54 164)" fill="url(#nodeFill)" stroke="url(#ringStroke)" stroke-width="4"/>
      <rect x="40" y="107" width="26" height="26" rx="9" transform="rotate(-18 40 107)" fill="url(#nodeFill)" stroke="url(#ringStroke)" stroke-width="4"/>
      <rect x="64" y="57" width="26" height="26" rx="9" transform="rotate(-18 64 57)" fill="url(#nodeFill)" stroke="url(#ringStroke)" stroke-width="4"/>
    </g>

    <g fill="url(#claw)">
      <path d="M104 152C102 139 105 126 112 116C119 105 131 98 144 96C150 95 156 100 156 106C156 111 152 115 147 116C138 118 131 123 127 131C123 138 122 147 124 156C126 163 121 169 114 169C108 169 104 165 104 159V152Z"/>
      <path d="M121 96C118 88 119 79 125 71C129 64 138 58 146 54C151 52 156 55 157 60C158 64 156 68 151 71C145 75 140 81 138 88C137 93 132 97 127 97C124 97 122 96 121 96Z"/>
      <path d="M95 110C88 105 83 97 82 88C81 80 83 71 87 63C90 58 96 56 101 59C105 61 107 66 105 71C103 77 103 83 105 89C107 94 105 100 100 103C98 105 96 106 95 110Z"/>
      <path d="M162 109C161 106 159 103 156 101C151 97 149 91 151 86C154 80 154 73 152 67C150 61 152 56 157 54C162 52 167 54 170 59C174 66 176 75 175 83C174 93 170 102 162 109Z"/>
    </g>

    <g>
      <circle cx="128" cy="132" r="22" fill="#F2F7FF" fill-opacity="0.96"/>
      <circle cx="128" cy="132" r="8" fill="#0C1624"/>
    </g>
  </g>
</svg>
