<svg width="256" height="256" viewBox="0 0 256 256" fill="none" xmlns="http://www.w3.org/2000/svg">
  <defs>
    <linearGradient id="panel" x1="28" y1="22" x2="226" y2="226" gradientUnits="userSpaceOnUse">
      <stop stop-color="#0A111B"/>
      <stop offset="1" stop-color="#132539"/>
    </linearGradient>
    <linearGradient id="clawFill" x1="82" y1="54" x2="196" y2="186" gradientUnits="userSpaceOnUse">
      <stop stop-color="#FF6D5C"/>
      <stop offset="0.42" stop-color="#F23E2F"/>
      <stop offset="1" stop-color="#A81618"/>
    </linearGradient>
    <linearGradient id="clawHighlight" x1="92" y1="62" x2="182" y2="170" gradientUnits="userSpaceOnUse">
      <stop stop-color="#FFD0BA"/>
      <stop offset="1" stop-color="#FF8E7D"/>
    </linearGradient>
    <linearGradient id="shieldStroke" x1="40" y1="54" x2="220" y2="198" gradientUnits="userSpaceOnUse">
      <stop stop-color="#CFE6FF"/>
      <stop offset="0.48" stop-color="#72B6FF"/>
      <stop offset="1" stop-color="#5BE2D5"/>
    </linearGradient>
    <radialGradient id="coreGlow" cx="0" cy="0" r="1" gradientUnits="userSpaceOnUse" gradientTransform="translate(174 96) rotate(90) scale(34)">
      <stop stop-color="#FFF4E5"/>
      <stop offset="0.32" stop-color="#FFD9C6"/>
      <stop offset="1" stop-color="#FFD9C6" stop-opacity="0"/>
    </radialGradient>
    <filter id="shadow" x="0" y="0" width="256" height="256" filterUnits="userSpaceOnUse" color-interpolation-filters="sRGB">
      <feDropShadow dx="0" dy="22" stdDeviation="22" flood-color="#07101A" flood-opacity="0.36"/>
    </filter>
    <clipPath id="clawClip">
      <path d="M76 166L46 182L26 188L40 178L58 162L76 166Z"/>
      <path d="M88 154C76 152 72 137 80 129L98 111C105 104 117 106 123 115L130 125C136 134 133 147 123 152L110 160C103 164 95 165 88 154Z"/>
      <path d="M95 152C90 118 101 92 126 73C149 56 179 53 206 65C216 70 221 78 220 84C218 91 211 95 201 95C185 95 171 100 161 111C153 120 149 131 149 142C149 151 142 157 133 159C122 161 111 160 95 152Z"/>
      <path d="M157 110C161 95 170 81 183 69C195 58 209 53 222 54C230 55 236 60 236 67C236 74 231 78 221 81C213 83 206 88 199 95C194 101 191 108 188 115C185 122 179 126 172 126C163 126 156 119 157 110Z"/>
    </clipPath>
  </defs>

  <g filter="url(#shadow)">
    <rect x="28" y="24" width="200" height="200" rx="54" fill="url(#panel)"/>
    <rect x="28.5" y="24.5" width="199" height="199" rx="53.5" stroke="#FFFFFF" stroke-opacity="0.08"/>

    <path d="M58 190C40 174 31 149 31 122C31 84 49 55 83 40" stroke="url(#shieldStroke)" stroke-width="10" stroke-linecap="round" opacity="0.9"/>
    <path d="M173 38C195 44 214 57 226 76C238 95 242 118 238 142C234 161 226 177 211 190" stroke="url(#shieldStroke)" stroke-width="10" stroke-linecap="round" opacity="0.9"/>
    <path d="M77 34L94 48" stroke="url(#shieldStroke)" stroke-width="6" stroke-linecap="round"/>
    <path d="M211 188L196 173" stroke="url(#shieldStroke)" stroke-width="6" stroke-linecap="round"/>
    <circle cx="74" cy="36" r="8" fill="#0E1D2E" stroke="url(#shieldStroke)" stroke-width="4"/>
    <circle cx="214" cy="190" r="8" fill="#0E1D2E" stroke="url(#shieldStroke)" stroke-width="4"/>

    <g>
      <path d="M76 166L46 182L26 188L40 178L58 162L76 166Z" fill="url(#clawFill)" stroke="#4A1116" stroke-width="4" stroke-linejoin="round"/>
      <path d="M88 154C76 152 72 137 80 129L98 111C105 104 117 106 123 115L130 125C136 134 133 147 123 152L110 160C103 164 95 165 88 154Z" fill="url(#clawFill)" stroke="#4A1116" stroke-width="4"/>
      <path d="M95 152C90 118 101 92 126 73C149 56 179 53 206 65C216 70 221 78 220 84C218 91 211 95 201 95C185 95 171 100 161 111C153 120 149 131 149 142C149 151 142 157 133 159C122 161 111 160 95 152Z" fill="url(#clawFill)" stroke="#4A1116" stroke-width="4" stroke-linejoin="round"/>
      <path d="M157 110C161 95 170 81 183 69C195 58 209 53 222 54C230 55 236 60 236 67C236 74 231 78 221 81C213 83 206 88 199 95C194 101 191 108 188 115C185 122 179 126 172 126C163 126 156 119 157 110Z" fill="url(#clawFill)" stroke="#4A1116" stroke-width="4" stroke-linejoin="round"/>
      <path d="M95 152C90 118 101 92 126 73C149 56 179 53 206 65" stroke="url(#clawHighlight)" stroke-width="5" stroke-linecap="round" opacity="0.92"/>
      <path d="M168 121C172 102 186 84 208 71" stroke="url(#clawHighlight)" stroke-width="4" stroke-linecap="round" opacity="0.9"/>
      <path d="M79 162L41 181" stroke="url(#clawHighlight)" stroke-width="4" stroke-linecap="round" opacity="0.85"/>
    </g>

    <g clip-path="url(#clawClip)" opacity="0.72" stroke="#FFE1D6" stroke-width="2.3" stroke-linecap="round" stroke-linejoin="round">
      <path d="M60 170L84 156L110 156L126 144L154 144L178 132L210 132"/>
      <path d="M72 158L90 145L108 145L128 134L148 134L171 123L197 123"/>
      <path d="M88 143L101 131L124 131L145 120L169 120L190 109"/>
      <path d="M98 127L111 117L132 117L152 107L176 107L191 97"/>
      <path d="M108 112L122 101L145 101L164 90L181 90"/>
      <path d="M52 181L69 169"/>
      <path d="M47 183L47 176"/>
      <path d="M69 169L69 161"/>
      <path d="M89 156L89 148"/>
      <path d="M111 156L111 147"/>
      <path d="M127 144L127 135"/>
      <path d="M154 144L154 135"/>
      <path d="M177 132L177 123"/>
      <path d="M210 132L210 123"/>
      <path d="M197 123L197 114"/>
      <path d="M189 109L189 101"/>
      <path d="M181 90L181 83"/>
    </g>

    <circle cx="175" cy="97" r="31" fill="url(#coreGlow)"/>
    <g stroke="#FFE0D6" stroke-width="4" stroke-linecap="round" opacity="0.95">
      <path d="M175 74V120"/>
      <path d="M152 97H198"/>
      <path d="M159 81C165 87 169 92 175 97C181 102 185 107 191 113"/>
      <path d="M191 81C185 87 181 92 175 97C169 102 165 107 159 113"/>
    </g>
    <circle cx="175" cy="97" r="7" fill="#FFF7EE"/>
  </g>
</svg>
