<svg width="256" height="256" viewBox="0 0 256 256" fill="none" xmlns="http://www.w3.org/2000/svg">
  <defs>
    <linearGradient id="bg" x1="28" y1="20" x2="228" y2="232" gradientUnits="userSpaceOnUse">
      <stop stop-color="#0C1730"/>
      <stop offset="1" stop-color="#102650"/>
    </linearGradient>
    <linearGradient id="brand" x1="62" y1="56" x2="194" y2="194" gradientUnits="userSpaceOnUse">
      <stop stop-color="#4DA2FF"/>
      <stop offset="0.55" stop-color="#28D4C5"/>
      <stop offset="1" stop-color="#8EF56D"/>
    </linearGradient>
    <linearGradient id="claw" x1="154" y1="48" x2="206" y2="98" gradientUnits="userSpaceOnUse">
      <stop stop-color="#FFC76A"/>
      <stop offset="1" stop-color="#FF7A4F"/>
    </linearGradient>
    <filter id="shadow" x="0" y="0" width="256" height="256" filterUnits="userSpaceOnUse" color-interpolation-filters="sRGB">
      <feDropShadow dx="0" dy="18" stdDeviation="24" flood-color="#08101E" flood-opacity="0.35"/>
    </filter>
  </defs>
  <g filter="url(#shadow)">
    <rect x="24" y="20" width="208" height="208" rx="56" fill="url(#bg)"/>
    <rect x="24.5" y="20.5" width="207" height="207" rx="55.5" stroke="#FFFFFF" stroke-opacity="0.12"/>
    <circle cx="78" cy="78" r="52" fill="#4DA2FF" fill-opacity="0.08"/>
    <circle cx="178" cy="178" r="62" fill="#28D4C5" fill-opacity="0.08"/>

    <g transform="translate(128 132) rotate(-33)">
      <rect x="-68" y="-30" width="82" height="58" rx="29" stroke="#F8FBFF" stroke-width="14"/>
      <rect x="-8" y="-30" width="82" height="58" rx="29" stroke="url(#brand)" stroke-width="14"/>
      <path d="M-2 -30H10" stroke="#0C1730" stroke-width="16" stroke-linecap="round"/>
      <path d="M58 28H70" stroke="#0C1730" stroke-width="16" stroke-linecap="round"/>
    </g>

    <g fill="url(#claw)">
      <path d="M166 52C171 45 178 42 187 42L170 78C161 78 154 76 149 71L166 52Z"/>
      <path d="M192 60C198 54 205 51 214 51L196 90C188 90 180 88 175 82L192 60Z"/>
      <path d="M181 89C186 83 193 80 202 80L187 113C178 113 171 111 166 106L181 89Z"/>
    </g>

    <circle cx="82" cy="180" r="14" fill="#F8FBFF"/>
    <circle cx="82" cy="180" r="7" fill="#0C1730"/>
  </g>
</svg>
